# xmcd CD database file
#
# Track frame offsets:
#	150
#	2872
#	6337
#	25757
#	27590
#	38872
#	41432
#	46107
#	67310
#	70000
#	90812
#	92930
#	117865
#	119400
#	141952
#	145520
#	147882
#	167282
#	168130
#	184702
#	186472
#	192730
#	212447
#	216135
#	231157
#	232335
#
# Disc length: 3270 seconds
#
# Revision: 1
# Processed by: cddbd v1.5.1PL2 Copyright (c) Steve Scherf et al.
# Submitted via: CDex 1.51
#
DISCID=700cc41a
DTITLE=Charlie Parker - The Complete Royal Roost Live Recordings On Savoy Years Vol. 1
DYEAR=1948
DGENRE=Jazz
TTITLE0=Announcers-Bob Garrity, Symphony Sid Torin
TTITLE1=Symphony Sid Talking Over Music
TTITLE2=52nd Street Theme
TTITLE3=Announcers-Symphony Sid
TTITLE4=Ko-Ko
TTITLE5=Announcers-Symphony Sid (52nd Street Theme)
TTITLE6=Announcers-Symphony Sid (Jumpin' With Symphony Sid)
TTITLE7=Groovin' High
TTITLE8=Announcers-Symphony Sid
TTITLE9=Big Foot
TTITLE10=Announcers-Symphony Sid
TTITLE11=Ornithology
TTITLE12=Announcers-Symphony Sid
TTITLE13=On A Slow Boat To China
TTITLE14=Announcers-Symphony Sid
TTITLE15=Announcers-Art Ford
TTITLE16=Hot House
TTITLE17=Announcers-Art Ford
TTITLE18=Salt Peanuts
TTITLE19=Announcers-Art Ford
TTITLE20=Announcers-Symphony Sid (Jumpin' With Symphony Sid)
TTITLE21=Chasin' The Bird
TTITLE22=Announcers-Symphony Sid
TTITLE23=Out Of Nowhere
TTITLE24=Announcers-Symphony Sid
TTITLE25=How High The Moon
EXTD=YEAR: 1948
EXTT0=
EXTT1=
EXTT2=
EXTT3=
EXTT4=
EXTT5=
EXTT6=
EXTT7=
EXTT8=
EXTT9=
EXTT10=
EXTT11=
EXTT12=
EXTT13=
EXTT14=
EXTT15=
EXTT16=
EXTT17=
EXTT18=
EXTT19=
EXTT20=
EXTT21=
EXTT22=
EXTT23=
EXTT24=
EXTT25=
PLAYORDER=
